<?xml version="1.0" standalone="no"?>
<!DOCTYPE svg PUBLIC "-//W3C//DTD SVG 20010904//EN"
 "http://www.w3.org/TR/2001/REC-SVG-20010904/DTD/svg10.dtd">
<svg version="1.0" xmlns="http://www.w3.org/2000/svg"
 width="686.000000pt" height="365.000000pt" viewBox="0 0 686.000000 365.000000"
 preserveAspectRatio="xMidYMid meet">
<g transform="translate(0.000000,365.000000) scale(0.100000,-0.100000)"
fill="#F31A51" stroke="none">
<path d="M3624 3622 c-170 -60 -340 -255 -494 -565 -139 -279 -237 -648 -316
-1184 -4 -28 -12 -34 -77 -61 -137 -57 -182 -67 -312 -65 -66 1 -133 3 -150 4
-16 2 -45 0 -62 -5 -18 -4 -33 -4 -33 1 0 5 28 45 61 88 274 357 546 866 636
1190 22 82 27 121 28 215 0 102 -3 120 -24 164 -30 59 -77 108 -134 138 -35
19 -58 23 -142 23 -92 0 -105 -3 -169 -33 -92 -43 -213 -164 -286 -286 -166
-277 -294 -700 -390 -1291 -58 -359 -110 -896 -110 -1152 0 -414 91 -687 258
-769 58 -29 202 -26 262 5 73 38 126 87 176 162 120 180 206 549 175 747 -17
108 -73 273 -135 397 -61 121 -60 125 15 125 63 0 218 28 318 56 46 14 86 22
89 20 2 -3 11 -47 18 -98 31 -206 101 -381 191 -478 68 -74 93 -84 196 -77 96
5 191 35 352 111 l110 52 51 -51 c29 -28 78 -64 110 -80 56 -29 65 -30 184
-30 121 0 127 1 195 33 137 65 227 157 306 314 55 108 79 204 86 335 7 133 -7
235 -48 347 -32 89 -34 96 -18 96 15 0 152 -97 212 -150 l47 -42 0 -196 c0
-419 41 -641 131 -717 37 -30 112 -34 162 -9 137 70 277 286 369 570 36 109
43 124 63 124 22 0 22 -2 29 -212 7 -232 26 -405 50 -462 13 -32 19 -36 51
-36 111 0 243 141 371 398 l61 123 7 -43 c20 -131 83 -215 192 -259 50 -19 76
-23 169 -23 95 1 120 4 185 28 86 32 199 92 206 110 2 6 3 84 2 173 l-3 161
-80 -49 c-101 -62 -221 -109 -278 -109 -56 0 -124 42 -166 104 -62 89 -63 78
50 312 152 313 175 398 127 459 -31 39 -77 55 -160 55 -76 0 -157 -28 -186
-63 -8 -9 -96 -206 -197 -437 -100 -232 -188 -427 -194 -433 -6 -6 -13 -8 -17
-5 -3 4 24 191 60 417 36 226 66 424 66 441 0 34 -28 67 -66 76 -45 11 -157
-2 -199 -24 -109 -55 -181 -181 -325 -567 -45 -121 -95 -248 -111 -282 -30
-69 -55 -85 -46 -30 4 17 31 213 62 435 41 301 53 407 45 422 -18 34 -66 51
-148 52 -54 1 -86 -3 -108 -15 -48 -25 -110 -102 -136 -168 -13 -32 -25 -59
-28 -59 -3 0 -32 20 -65 44 -78 59 -202 120 -300 148 -62 17 -107 22 -200 23
-140 0 -199 -12 -312 -66 -169 -81 -293 -234 -354 -440 -19 -64 -23 -101 -24
-269 l-2 -195 -113 -58 c-93 -48 -119 -58 -154 -55 -38 3 -43 6 -65 51 -37 76
-40 164 -7 278 29 100 44 131 251 499 236 419 349 660 419 893 50 166 61 238
61 387 0 128 -1 138 -28 193 -40 80 -87 110 -176 114 -45 2 -82 -2 -117 -15z
m4 -383 c6 -130 -71 -405 -190 -679 -56 -128 -228 -474 -252 -505 -15 -20 -15
-20 -16 0 0 43 22 196 51 350 30 162 117 467 171 605 55 140 129 258 180 287
43 24 53 13 56 -58z m-991 37 c24 -21 28 -32 31 -94 5 -92 -22 -175 -127 -388
-83 -167 -421 -739 -421 -712 0 47 42 320 65 423 35 157 109 380 185 560 89
210 110 235 197 235 30 0 50 -7 70 -24z m1565 -1246 c89 -25 133 -129 132
-315 0 -219 -60 -408 -160 -508 -44 -43 -68 -51 -130 -44 -58 6 -110 48 -144
113 -24 46 -25 57 -25 209 1 154 2 164 33 253 53 154 129 260 207 287 49 17
43 17 87 5z m-2109 -519 c78 -133 104 -268 114 -591 11 -365 -31 -554 -128
-575 -71 -16 -94 65 -109 393 -9 184 -8 262 5 440 18 242 33 390 41 403 13 22
35 3 77 -70z"/>
<path d="M120 2454 c-36 -15 -81 -71 -95 -118 -19 -64 -19 -155 0 -182 8 -12
30 -29 49 -38 19 -9 265 -86 547 -171 283 -86 523 -158 533 -162 15 -4 16 -7
5 -13 -8 -5 -234 -92 -504 -194 -428 -163 -494 -191 -526 -222 -78 -76 -109
-216 -60 -268 73 -78 197 -58 551 87 74 30 187 74 250 97 63 23 180 73 259
112 122 60 153 80 211 137 84 83 105 135 105 267 0 82 -3 94 -27 132 -39 58
-103 98 -252 158 -72 28 -246 100 -386 158 -446 187 -608 240 -660 220z"/>
</g>
</svg>
